<?xml version="1.0" standalone="no"?><!DOCTYPE svg PUBLIC "-//W3C//DTD SVG 1.1//EN" "http://www.w3.org/Graphics/SVG/1.1/DTD/svg11.dtd"><svg height="1024" node-id="1" sillyvg="true" template-height="1024" template-width="1024" version="1.1" viewBox="0 0 1024 1024" width="1024" xmlns="http://www.w3.org/2000/svg" xmlns:xlink="http://www.w3.org/1999/xlink"><defs node-id="20"></defs><path d="M 0.00 0.00 L 1024.00 0.00 L 1024.00 1024.00 L 0.00 1024.00 Z" fill="#ffffff" fill-rule="nonzero" node-id="22" stroke="none" target-height="1024" target-width="1024" target-x="0" target-y="0"></path><path d="M 903.66 602.71 L 604.70 901.65 C 576.95 929.41 539.31 945.00 500.06 945.00 C 460.81 945.00 423.17 929.41 395.42 901.65 L 96.35 602.63 C 82.61 588.89 71.71 572.57 64.27 554.61 C 56.83 536.65 53.00 517.41 53.00 497.97 C 53.00 478.53 56.83 459.28 64.27 441.32 C 71.71 423.37 82.61 407.05 96.35 393.31 L 395.33 94.35 C 423.08 66.59 460.73 51.00 499.97 51.00 C 539.22 51.00 576.86 66.59 604.62 94.35 L 903.66 393.41 C 931.41 421.17 947.00 458.81 947.00 498.06 C 947.00 537.31 931.41 574.96 903.66 602.71 Z M 106.30 403.44 C 93.89 415.85 84.05 430.58 77.33 446.80 C 70.62 463.01 67.16 480.39 67.16 497.94 C 67.16 515.49 70.62 532.87 77.33 549.08 C 84.05 565.29 93.89 580.02 106.30 592.43 L 405.57 891.71 C 417.98 904.12 432.71 913.96 448.92 920.68 C 465.13 927.39 482.51 930.85 500.06 930.85 C 517.61 930.85 534.98 927.39 551.19 920.68 C 567.41 913.96 582.14 904.12 594.55 891.71 L 893.73 592.50 C 906.14 580.09 915.98 565.36 922.70 549.14 C 929.42 532.93 932.87 515.55 932.87 498.00 C 932.87 480.45 929.42 463.07 922.70 446.86 C 915.98 430.64 906.14 415.91 893.73 403.50 L 594.46 104.25 C 569.40 79.19 535.42 65.12 499.98 65.12 C 464.55 65.12 430.56 79.19 405.51 104.25 L 106.30 403.44 Z" fill="#e01320" fill-rule="nonzero" node-id="24" stroke="none" target-height="894" target-width="894" target-x="53" target-y="51"></path><path d="M 878.91 418.11 C 900.10 439.30 912.00 468.04 912.00 498.00 C 912.00 527.96 900.10 556.70 878.91 577.89 L 579.89 876.91 C 558.70 898.10 529.96 910.00 500.00 910.00 C 470.04 910.00 441.30 898.10 420.11 876.91 L 121.09 577.89 C 99.90 556.70 88.00 527.96 88.00 498.00 C 88.00 468.04 99.90 439.30 121.09 418.11 L 420.11 119.09 C 441.30 97.90 470.04 86.00 500.00 86.00 C 529.96 86.00 558.70 97.90 579.89 119.09 L 878.91 418.11 Z M 499.69 704.87 C 542.95 578.58 700.93 546.65 790.23 645.44 C 790.29 645.51 790.37 645.57 790.46 645.61 C 790.55 645.65 790.64 645.67 790.74 645.67 C 790.83 645.68 790.93 645.66 791.01 645.63 C 791.10 645.60 791.18 645.55 791.25 645.48 C 813.45 623.32 835.63 601.12 857.82 578.90 C 871.14 565.55 879.96 555.22 884.29 547.92 C 899.43 522.32 901.75 490.93 891.63 463.08 C 887.04 450.41 880.18 439.51 871.04 430.37 C 775.21 334.57 679.38 238.75 583.57 142.92 C 568.87 128.22 558.78 119.16 553.30 115.74 C 521.74 95.98 481.16 94.73 449.14 114.15 C 442.47 118.21 433.21 126.15 421.38 137.97 C 326.20 233.11 232.48 326.82 140.22 419.11 C 129.04 430.29 121.57 438.75 117.80 444.49 C 97.17 475.81 97.52 516.19 115.92 548.48 C 119.70 555.13 128.69 565.52 142.87 579.65 C 163.12 599.80 184.87 621.52 208.12 644.82 C 208.17 644.87 208.23 644.91 208.30 644.93 C 208.36 644.96 208.44 644.97 208.51 644.97 C 208.58 644.97 208.65 644.95 208.72 644.92 C 208.78 644.89 208.84 644.85 208.90 644.79 C 266.87 579.96 362.57 568.49 433.69 617.61 C 464.07 638.61 485.77 667.70 498.79 704.87 C 499.10 705.73 499.39 705.73 499.69 704.87 Z M 350.29 602.15 C 299.53 598.05 255.72 615.53 218.87 654.60 C 218.56 654.92 218.57 655.23 218.89 655.54 L 232.88 669.55 C 232.94 669.61 233.01 669.66 233.09 669.69 C 233.17 669.72 233.25 669.74 233.33 669.74 C 233.42 669.74 233.50 669.72 233.57 669.68 C 233.64 669.65 233.71 669.60 233.76 669.53 C 259.60 640.52 291.25 624.88 328.72 622.60 C 397.72 618.40 457.53 666.63 469.94 734.14 C 469.98 734.34 470.09 734.53 470.26 734.65 C 470.42 734.77 470.63 734.83 470.84 734.81 L 490.38 732.57 C 490.76 732.53 490.91 732.32 490.84 731.95 C 483.88 695.29 467.37 665.32 441.32 642.04 C 414.68 618.20 384.33 604.91 350.29 602.15 Z M 528.45 733.91 C 535.84 697.10 554.37 668.13 584.05 647.00 C 640.87 606.56 719.97 616.65 765.26 670.39 C 765.32 670.46 765.40 670.52 765.49 670.57 C 765.58 670.61 765.67 670.63 765.77 670.64 C 765.87 670.64 765.97 670.63 766.06 670.59 C 766.15 670.55 766.23 670.50 766.30 670.43 L 780.20 656.54 C 780.31 656.42 780.37 656.27 780.38 656.11 C 780.39 655.96 780.34 655.80 780.24 655.68 C 755.25 627.63 724.94 610.37 689.31 603.89 C 645.86 595.98 600.88 607.27 566.40 634.24 C 534.62 659.08 515.05 691.64 507.70 731.93 C 507.63 732.27 507.77 732.47 508.14 732.51 L 527.56 734.55 C 528.06 734.61 528.36 734.39 528.45 733.91 Z M 328.22 659.23 C 380.43 654.72 427.49 692.21 434.46 744.11 C 434.55 744.80 434.94 745.04 435.60 744.82 L 455.38 738.16 C 455.64 738.08 455.86 737.90 456.00 737.66 C 456.13 737.42 456.18 737.14 456.13 736.87 C 436.04 635.76 312.28 600.65 244.15 679.34 C 243.70 679.87 243.72 680.37 244.21 680.86 L 258.88 695.55 C 259.15 695.83 259.42 695.82 259.67 695.53 C 278.15 673.68 301.00 661.58 328.22 659.23 Z M 564.00 743.90 C 576.83 658.37 684.40 628.19 739.16 696.09 C 739.25 696.19 739.35 696.27 739.47 696.34 C 739.59 696.40 739.72 696.43 739.85 696.44 C 739.98 696.45 740.11 696.43 740.24 696.38 C 740.36 696.34 740.47 696.26 740.56 696.17 L 755.20 681.53 C 755.36 681.38 755.45 681.18 755.45 680.96 C 755.46 680.75 755.39 680.54 755.25 680.38 C 687.35 601.11 563.62 634.51 542.45 735.93 C 542.26 736.92 542.63 737.57 543.58 737.87 L 563.25 744.38 C 563.33 744.40 563.41 744.41 563.50 744.40 C 563.58 744.39 563.66 744.36 563.74 744.32 C 563.81 744.27 563.87 744.21 563.91 744.14 C 563.96 744.07 563.99 743.99 564.00 743.90 Z M 398.06 764.43 C 397.93 765.72 398.40 765.99 399.45 765.24 C 406.25 760.36 413.16 756.01 420.17 752.18 C 420.79 751.85 421.06 751.33 420.98 750.62 C 412.66 673.91 318.98 644.90 269.91 705.48 C 269.78 705.65 269.71 705.86 269.72 706.08 C 269.73 706.29 269.82 706.49 269.97 706.64 L 284.99 721.66 C 285.44 722.11 285.86 722.08 286.25 721.58 C 325.13 670.70 403.69 700.70 398.06 764.43 Z M 600.23 763.68 C 599.13 746.90 603.26 732.43 612.62 720.25 C 638.43 686.70 688.53 687.85 712.90 722.64 C 712.96 722.73 713.04 722.80 713.13 722.85 C 713.23 722.90 713.33 722.93 713.43 722.94 C 713.54 722.95 713.64 722.93 713.74 722.90 C 713.84 722.86 713.93 722.80 714.00 722.73 L 728.82 707.92 C 729.44 707.28 729.48 706.61 728.92 705.91 C 680.15 645.61 586.76 672.87 577.50 749.68 C 577.43 750.26 577.64 750.72 578.14 751.03 L 599.46 764.13 C 600.02 764.48 600.27 764.33 600.23 763.68 Z M 297.65 734.45 L 359.80 796.38 C 360.14 796.73 360.54 797.00 360.99 797.18 C 361.44 797.37 361.91 797.46 362.39 797.46 C 362.88 797.46 363.36 797.37 363.80 797.18 C 364.25 797.00 364.65 796.73 364.99 796.38 L 370.44 790.94 C 374.82 786.54 378.29 781.32 380.66 775.58 C 383.02 769.83 384.23 763.68 384.22 757.47 C 384.21 751.25 382.97 745.11 380.58 739.37 C 378.19 733.63 374.69 728.43 370.29 724.04 L 369.98 723.71 C 365.58 719.32 360.36 715.85 354.61 713.48 C 348.87 711.11 342.71 709.89 336.50 709.90 C 330.29 709.91 324.14 711.15 318.40 713.53 C 312.67 715.92 307.46 719.41 303.08 723.81 L 297.63 729.28 C 296.95 729.97 296.57 730.90 296.58 731.87 C 296.58 732.84 296.97 733.77 297.65 734.45 Z M 640.62 796.41 L 700.72 736.31 C 701.65 735.37 702.18 734.09 702.18 732.76 C 702.18 731.43 701.65 730.16 700.72 729.22 L 695.46 723.94 C 686.55 715.03 674.50 709.98 661.97 709.91 C 649.44 709.84 637.45 714.75 628.64 723.56 L 627.87 724.33 C 619.06 733.14 614.15 745.13 614.22 757.66 C 614.29 770.19 619.34 782.24 628.25 791.15 L 633.53 796.41 C 634.47 797.34 635.74 797.87 637.07 797.87 C 638.40 797.87 639.68 797.34 640.62 796.41 Z M 532.56 771.58 C 564.45 779.40 590.46 797.14 610.60 824.82 C 610.67 824.91 610.75 824.99 610.85 825.04 C 610.95 825.10 611.06 825.14 611.17 825.15 C 611.29 825.16 611.41 825.14 611.52 825.10 C 611.63 825.06 611.73 825.00 611.81 824.92 L 625.29 811.45 C 625.91 810.82 625.93 810.17 625.35 809.51 C 622.07 805.75 618.76 801.99 615.44 798.22 C 550.59 724.54 432.29 731.24 374.36 810.26 C 374.27 810.38 374.23 810.53 374.24 810.68 C 374.25 810.83 374.31 810.98 374.42 811.09 L 388.58 825.24 C 388.84 825.49 389.06 825.46 389.25 825.17 C 421.15 779.09 478.26 758.27 532.56 771.58 Z M 415.66 851.27 C 455.44 788.81 544.20 788.06 584.13 850.89 C 584.56 851.59 585.07 851.64 585.65 851.06 L 600.23 836.48 C 600.72 835.99 600.77 835.47 600.38 834.91 C 583.44 811.05 561.73 795.07 535.23 786.98 C 484.40 771.46 430.04 790.77 399.83 834.68 C 399.34 835.39 399.40 836.05 400.02 836.67 L 414.70 851.37 C 414.77 851.44 414.85 851.49 414.93 851.53 C 415.02 851.56 415.12 851.57 415.21 851.56 C 415.30 851.55 415.39 851.52 415.47 851.47 C 415.55 851.42 415.61 851.35 415.66 851.27 Z M 573.93 861.78 C 540.72 803.77 460.60 803.92 426.30 861.07 C 425.86 861.84 425.94 862.54 426.55 863.18 C 431.35 868.24 436.56 872.91 442.18 877.20 C 442.88 877.74 443.44 877.62 443.84 876.82 C 467.79 829.22 532.94 828.93 556.20 877.03 C 556.27 877.19 556.38 877.33 556.52 877.44 C 556.66 877.54 556.82 877.62 557.00 877.65 C 557.17 877.69 557.35 877.68 557.51 877.63 C 557.68 877.59 557.84 877.50 557.97 877.39 L 573.66 863.41 C 574.19 862.94 574.28 862.39 573.93 861.78 Z M 542.91 886.19 C 543.94 885.73 544.22 884.99 543.76 883.96 C 526.72 845.49 473.78 845.85 456.13 884.06 C 455.73 884.94 455.96 885.58 456.84 885.98 C 485.04 899.00 513.73 899.07 542.91 886.19 Z" fill="#e01320" fill-rule="nonzero" node-id="26" stroke="none" target-height="824" target-width="824" target-x="88" target-y="86"></path><path d="M 362.07 384.00 L 362.07 370.70 L 393.14 341.94 C 395.78 339.38 398.00 337.08 399.79 335.04 C 401.61 332.99 402.98 330.99 403.92 329.03 C 404.86 327.04 405.33 324.89 405.33 322.59 C 405.33 320.04 404.74 317.83 403.58 315.99 C 402.42 314.11 400.82 312.68 398.81 311.69 C 396.79 310.66 394.50 310.15 391.95 310.15 C 389.28 310.15 386.95 310.69 384.96 311.77 C 382.97 312.85 381.44 314.40 380.36 316.42 C 379.28 318.43 378.74 320.83 378.74 323.62 L 361.22 323.62 C 361.22 317.91 362.51 312.95 365.10 308.74 C 367.69 304.54 371.31 301.29 375.97 298.99 C 380.62 296.69 385.99 295.53 392.07 295.53 C 398.32 295.53 403.76 296.64 408.39 298.86 C 413.05 301.05 416.68 304.08 419.26 307.98 C 421.85 311.87 423.14 316.33 423.14 321.36 C 423.14 324.65 422.49 327.91 421.18 331.12 C 419.90 334.33 417.61 337.89 414.32 341.81 C 411.02 345.70 406.38 350.38 400.38 355.83 L 387.64 368.32 L 387.64 368.92 L 424.29 368.92 L 424.29 384.00 L 362.07 384.00 Z M 471.88 385.92 C 464.55 385.89 458.24 384.08 452.96 380.51 C 447.70 376.93 443.65 371.74 440.81 364.95 C 438.00 358.16 436.61 349.99 436.64 340.45 C 436.64 330.93 438.04 322.82 440.86 316.12 C 443.70 309.41 447.75 304.31 453.00 300.82 C 458.29 297.30 464.58 295.53 471.88 295.53 C 479.18 295.53 485.46 297.30 490.71 300.82 C 496.00 304.34 500.06 309.45 502.90 316.16 C 505.74 322.83 507.15 330.93 507.12 340.45 C 507.12 350.02 505.70 358.20 502.86 364.99 C 500.05 371.78 496.01 376.97 490.76 380.55 C 485.50 384.13 479.21 385.92 471.88 385.92 Z M 471.88 370.62 C 476.88 370.62 480.87 368.11 483.85 363.08 C 486.84 358.05 488.31 350.51 488.29 340.45 C 488.29 333.83 487.60 328.32 486.24 323.92 C 484.90 319.51 483.00 316.20 480.53 313.99 C 478.09 311.77 475.20 310.66 471.88 310.66 C 466.91 310.66 462.93 313.15 459.95 318.12 C 456.96 323.09 455.46 330.53 455.43 340.45 C 455.43 347.15 456.10 352.75 457.43 357.24 C 458.80 361.70 460.71 365.05 463.19 367.30 C 465.66 369.51 468.56 370.62 471.88 370.62 Z M 520.28 384.00 L 520.28 370.70 L 551.34 341.94 C 553.98 339.38 556.20 337.08 557.99 335.04 C 559.81 332.99 561.19 330.99 562.12 329.03 C 563.06 327.04 563.53 324.89 563.53 322.59 C 563.53 320.04 562.95 317.83 561.78 315.99 C 560.62 314.11 559.03 312.68 557.01 311.69 C 554.99 310.66 552.71 310.15 550.15 310.15 C 547.48 310.15 545.15 310.69 543.16 311.77 C 541.17 312.85 539.64 314.40 538.56 316.42 C 537.48 318.43 536.94 320.83 536.94 323.62 L 519.42 323.62 C 519.42 317.91 520.72 312.95 523.30 308.74 C 525.89 304.54 529.51 301.29 534.17 298.99 C 538.83 296.69 544.20 295.53 550.28 295.53 C 556.53 295.53 561.97 296.64 566.60 298.86 C 571.26 301.05 574.88 304.08 577.46 307.98 C 580.05 311.87 581.34 316.33 581.34 321.36 C 581.34 324.65 580.69 327.91 579.38 331.12 C 578.10 334.33 575.82 337.89 572.52 341.81 C 569.23 345.70 564.58 350.38 558.59 355.83 L 545.85 368.32 L 545.85 368.92 L 582.49 368.92 L 582.49 384.00 L 520.28 384.00 Z M 592.67 368.66 L 592.67 354.13 L 629.10 296.73 L 641.63 296.73 L 641.63 316.84 L 634.22 316.84 L 611.25 353.19 L 611.25 353.87 L 663.02 353.87 L 663.02 368.66 L 592.67 368.66 Z M 634.56 384.00 L 634.56 364.23 L 634.90 357.79 L 634.90 296.73 L 652.20 296.73 L 652.20 384.00 L 634.56 384.00 Z" fill="#e01320" fill-rule="nonzero" node-id="28" stroke="none" target-height="90.384" target-width="301.8" target-x="361.222" target-y="295.534"></path><path d="M 277.52 453.88 L 386.24 453.88 L 386.24 467.32 L 277.52 467.32 L 277.52 453.88 Z M 312.32 427.00 L 327.44 427.60 C 325.16 481.36 317.24 517.36 286.04 538.60 C 284.12 535.60 278.36 529.12 275.00 526.24 C 304.64 508.84 310.88 475.84 312.32 427.00 Z M 334.04 464.32 L 348.68 464.32 L 348.68 518.08 C 348.68 523.24 349.40 523.96 354.44 523.96 C 356.84 523.96 366.92 523.96 369.68 523.96 C 374.12 523.96 374.96 521.68 375.56 510.16 C 378.68 512.44 384.68 514.84 388.64 515.68 C 387.08 532.12 383.00 537.16 370.88 537.16 C 367.76 537.16 355.52 537.16 352.52 537.16 C 337.76 537.16 334.04 532.84 334.04 518.20 L 334.04 464.32 Z M 341.12 436.24 L 350.72 428.44 C 357.80 433.24 367.64 440.56 372.56 445.24 L 362.48 453.88 C 357.92 449.08 348.32 441.52 341.12 436.24 Z M 368.72 471.76 L 382.16 477.40 C 367.64 503.44 345.56 523.48 319.64 536.56 C 317.60 533.08 313.40 528.28 309.80 525.04 C 334.64 514.24 356.48 495.52 368.72 471.76 Z M 421.76 426.64 L 436.40 430.36 C 430.04 448.24 419.48 465.52 408.80 476.32 C 406.04 473.80 399.92 469.00 396.44 466.96 C 407.24 457.60 416.60 442.24 421.76 426.64 Z M 424.28 440.32 L 500.60 440.32 L 500.60 454.24 L 417.32 454.24 L 424.28 440.32 Z M 415.76 468.64 L 497.84 468.64 L 497.84 482.08 L 430.28 482.08 L 430.28 507.28 L 415.76 507.28 L 415.76 468.64 Z M 396.80 500.20 L 507.20 500.20 L 507.20 514.12 L 396.80 514.12 L 396.80 500.20 Z M 451.04 447.52 L 465.92 447.52 L 465.92 539.80 L 451.04 539.80 L 451.04 447.52 Z M 518.72 459.40 L 625.52 459.40 L 625.52 474.28 L 518.72 474.28 L 518.72 459.40 Z M 580.28 465.40 C 587.48 492.88 602.72 515.68 628.16 525.76 C 624.56 529.00 619.76 535.24 617.36 539.44 C 589.88 526.60 574.88 501.76 565.76 468.76 L 580.28 465.40 Z M 563.72 427.12 L 579.56 427.12 C 578.96 463.72 578.72 514.60 527.24 539.44 C 524.96 535.48 520.52 530.32 516.32 527.20 C 565.52 505.24 563.36 459.64 563.72 427.12 Z M 638.84 441.88 L 745.04 441.88 L 745.04 455.32 L 638.84 455.32 L 638.84 441.88 Z M 646.76 468.52 L 737.96 468.52 L 737.96 482.20 L 646.76 482.20 L 646.76 468.52 Z M 659.72 522.52 L 723.44 522.52 L 723.44 535.72 L 659.72 535.72 L 659.72 522.52 Z M 684.20 427.12 L 699.44 427.12 L 699.44 475.24 L 684.20 475.24 L 684.20 427.12 Z M 651.20 492.04 L 734.00 492.04 L 734.00 540.16 L 718.16 540.16 L 718.16 504.88 L 666.08 504.88 L 666.08 540.16 L 651.20 540.16 L 651.20 492.04 Z" fill="#e01320" fill-rule="nonzero" node-id="30" stroke="none" target-height="113.51996" target-width="470.03998" target-x="275" target-y="426.64"></path><path d="M 888.06 151.78 C 889.50 150.62 890.80 149.45 891.96 148.27 C 896.16 144.00 902.02 143.12 906.99 146.74 C 910.33 149.16 911.86 152.78 911.59 157.60 C 910.71 173.47 904.22 186.36 892.14 196.27 C 880.27 205.99 864.01 209.70 848.95 206.43 C 824.79 201.20 808.50 180.48 808.00 155.86 C 807.90 150.72 810.03 146.29 814.91 144.42 C 822.29 141.60 826.38 147.05 831.07 151.58 C 831.71 152.19 832.23 152.11 832.64 151.33 C 843.18 131.17 872.03 129.20 885.03 148.10 C 885.85 149.28 886.52 150.43 887.06 151.55 C 887.30 152.05 887.64 152.12 888.06 151.78 Z M 838.03 156.09 C 851.61 163.63 868.23 163.52 881.75 156.01 C 881.83 155.97 881.89 155.89 881.92 155.81 C 881.95 155.72 881.94 155.63 881.90 155.55 C 872.72 136.63 847.36 136.84 837.80 155.34 C 837.64 155.66 837.71 155.91 838.03 156.09 Z M 833.93 192.94 C 851.12 205.20 874.20 203.46 889.89 189.79 C 899.20 181.67 904.31 170.73 905.23 156.95 C 905.53 152.45 900.80 148.64 897.13 152.30 C 875.81 173.63 842.74 173.48 821.95 151.70 C 820.48 150.16 818.37 149.65 816.51 150.84 C 814.44 152.15 814.30 154.48 814.43 156.78 C 815.29 172.22 821.79 184.27 833.93 192.94 Z" fill="#e01320" fill-rule="nonzero" node-id="32" stroke="none" target-height="80.5" target-width="103.95697" target-x="807.903" target-y="129.197"></path><path d="M 146.07 107.01 C 146.05 107.00 146.03 106.99 146.02 106.97 C 146.01 106.95 146.00 106.93 146.00 106.91 C 146.00 106.89 146.00 106.87 146.01 106.85 C 146.02 106.83 146.04 106.81 146.06 106.80 C 149.23 105.07 152.44 103.30 155.68 101.50 C 160.81 98.66 163.95 91.69 166.66 86.30 C 166.86 85.90 167.07 85.90 167.29 86.29 C 170.58 92.18 172.76 98.09 178.89 101.73 C 181.77 103.45 184.68 105.04 187.64 106.50 C 188.05 106.71 188.05 106.92 187.64 107.13 C 184.26 108.83 181.22 110.49 178.52 112.11 C 173.12 115.37 170.05 121.96 167.32 127.58 C 167.29 127.63 167.26 127.67 167.22 127.70 C 167.17 127.72 167.12 127.74 167.07 127.74 C 167.02 127.74 166.97 127.73 166.92 127.70 C 166.88 127.68 166.84 127.64 166.82 127.59 C 163.97 122.10 161.37 115.81 155.69 112.27 C 152.90 110.54 149.69 108.79 146.07 107.01 Z M 166.91 99.26 C 164.91 102.21 162.53 104.63 159.78 106.51 C 159.42 106.75 159.42 106.98 159.78 107.21 C 162.60 109.06 164.90 111.36 166.69 114.11 C 166.92 114.48 167.15 114.48 167.39 114.11 C 169.19 111.35 171.47 109.05 174.25 107.21 C 174.63 106.96 174.63 106.71 174.24 106.45 C 171.44 104.63 169.08 102.24 167.14 99.26 C 167.12 99.24 167.11 99.23 167.09 99.22 C 167.06 99.20 167.04 99.20 167.02 99.20 C 166.99 99.20 166.97 99.20 166.95 99.22 C 166.93 99.23 166.92 99.24 166.91 99.26 Z" fill="#e01320" fill-rule="nonzero" node-id="34" stroke="none" target-height="41.843796" target-width="42.052002" target-x="145.999" target-y="85.8992"></path><path d="M 158.66 841.77 C 163.81 820.59 184.83 808.67 205.13 818.48 C 215.92 823.69 223.74 834.86 223.70 847.22 C 223.69 847.61 223.88 847.76 224.26 847.69 C 238.16 845.06 246.81 855.52 248.28 868.21 C 248.29 868.35 248.36 868.48 248.47 868.57 C 248.58 868.66 248.72 868.70 248.86 868.69 C 263.50 867.72 272.87 881.99 272.09 895.25 C 271.53 904.86 267.39 912.18 259.69 917.23 C 251.36 922.69 239.73 922.75 230.98 918.09 C 230.66 917.92 230.40 917.98 230.18 918.26 C 221.99 928.26 207.37 927.78 196.74 922.17 C 196.39 921.99 196.12 922.07 195.93 922.40 C 193.54 926.51 190.03 929.86 185.41 932.46 C 175.22 938.19 162.61 942.07 152.37 935.26 C 152.07 935.06 151.79 935.09 151.54 935.36 C 141.34 946.33 125.30 949.65 111.79 945.55 C 102.47 942.72 95.18 936.69 89.42 929.08 C 85.59 924.03 81.33 917.85 76.89 913.88 C 73.65 910.99 70.08 908.65 66.18 906.84 C 54.50 901.44 39.58 896.17 28.06 905.24 C 27.53 905.66 26.86 905.86 26.20 905.79 C 20.78 905.32 23.57 899.46 25.06 896.97 C 31.55 886.14 41.06 880.21 53.58 879.19 C 62.50 878.47 73.23 881.92 82.08 884.16 C 92.44 886.77 104.05 887.07 111.18 878.36 C 111.92 877.44 112.51 876.33 112.94 875.02 C 113.06 874.65 113.07 874.28 112.96 873.91 C 108.64 859.34 115.89 845.21 129.56 839.46 C 138.22 835.82 149.65 836.36 158.02 842.02 C 158.34 842.24 158.56 842.16 158.66 841.77 Z M 212.66 887.96 C 213.24 887.30 214.06 886.91 215.14 886.79 C 215.61 886.74 216.09 886.82 216.53 887.01 C 216.97 887.21 217.35 887.53 217.63 887.92 C 223.03 895.63 232.62 893.87 237.78 887.03 C 240.64 883.24 242.01 878.56 241.91 872.98 C 241.73 864.06 237.59 852.92 227.02 854.08 C 224.43 854.37 222.53 855.95 221.60 858.30 C 216.62 870.92 201.71 878.02 189.61 871.10 C 184.69 868.29 181.54 864.22 180.16 858.87 C 177.27 847.72 186.10 836.69 197.87 837.36 C 198.51 837.40 199.11 837.66 199.59 838.09 C 202.16 840.42 200.90 844.11 197.46 844.07 C 188.41 843.95 183.21 853.75 188.54 861.21 C 193.98 868.80 203.95 868.48 210.53 862.63 C 219.43 854.72 218.58 840.43 211.08 831.72 C 193.64 811.44 164.96 824.62 164.83 849.24 C 164.82 852.49 161.07 853.60 158.95 851.47 C 149.80 842.30 135.00 840.99 125.34 850.20 C 119.48 855.79 117.35 862.41 118.96 870.06 C 121.47 881.99 133.57 888.33 144.66 883.74 C 151.25 881.01 157.29 872.78 151.30 866.34 C 147.76 862.54 143.52 862.14 138.60 865.15 C 137.83 865.62 137.17 866.25 136.61 867.02 C 133.87 870.83 128.03 866.46 131.37 862.60 C 137.69 855.29 149.45 853.81 156.21 861.58 C 165.99 872.82 157.38 887.82 144.49 891.00 C 133.41 893.73 124.30 890.80 117.18 882.19 C 117.07 882.07 116.97 882.07 116.87 882.20 C 103.37 898.84 82.75 891.29 65.72 887.15 C 54.84 884.50 44.84 885.81 36.30 893.67 C 36.00 893.94 36.05 894.06 36.45 894.01 C 45.38 892.96 53.93 894.20 62.11 897.73 C 70.02 901.15 78.55 905.25 87.19 906.88 C 94.82 908.31 104.41 906.99 109.48 900.50 C 110.89 898.71 113.99 897.98 115.30 900.34 C 116.09 901.77 116.05 903.06 115.19 904.20 C 108.42 913.12 97.27 915.22 86.77 913.73 C 86.39 913.68 86.32 913.80 86.55 914.10 C 91.21 920.37 95.21 925.40 98.54 929.21 C 111.37 943.88 132.64 944.04 146.58 930.75 C 146.90 930.44 146.92 930.11 146.66 929.76 C 137.85 918.21 139.37 901.11 152.66 893.78 C 162.49 888.36 176.57 893.52 178.56 904.88 C 179.81 912.06 177.26 917.73 170.92 921.89 C 167.23 924.31 162.28 921.65 165.09 917.33 C 165.31 916.98 165.65 916.71 166.05 916.57 C 173.08 914.12 174.25 904.97 168.16 900.59 C 160.41 895.03 150.54 900.62 148.48 909.17 C 147.20 914.48 148.20 919.70 151.46 924.82 C 152.30 926.15 153.46 926.88 154.47 928.04 C 157.65 931.67 163.13 932.74 167.76 931.86 C 175.19 930.46 185.90 926.16 189.71 919.52 C 194.43 911.29 190.18 901.84 185.03 894.42 C 184.15 893.16 184.00 891.82 184.57 890.39 C 184.79 889.82 185.17 889.43 185.70 889.22 C 187.68 888.44 189.31 888.91 190.57 890.63 C 195.74 897.69 199.45 906.25 198.29 914.69 C 198.24 915.04 198.37 915.30 198.67 915.47 C 205.11 919.34 214.01 920.96 220.82 917.39 C 223.95 915.75 224.99 913.76 226.56 911.13 C 227.54 909.49 229.63 908.96 231.21 910.11 C 238.14 915.14 245.56 916.05 253.47 912.83 C 268.03 906.92 269.89 884.04 255.58 876.69 C 253.56 875.65 251.47 875.25 249.31 875.50 C 248.89 875.55 248.66 875.78 248.62 876.20 C 247.82 884.97 244.38 891.55 238.30 895.94 C 230.03 901.91 217.77 900.96 212.31 891.98 C 211.43 890.55 211.55 889.21 212.66 887.96 Z" fill="#e01320" fill-rule="nonzero" node-id="36" stroke="none" target-height="140.97998" target-width="252.0896" target-x="20.7764" target-y="808.671"></path><path d="M 863.66 980.53 L 867.55 980.23 C 868.42 980.16 868.89 980.56 868.98 981.43 L 869.51 987.04 C 869.60 987.88 869.22 988.33 868.38 988.39 C 861.96 988.92 855.40 988.86 848.72 988.21 C 847.92 988.13 847.58 987.70 847.70 986.91 L 848.59 980.75 C 848.67 980.12 849.03 979.84 849.66 979.90 L 853.96 980.28 C 854.38 980.32 854.59 980.13 854.58 979.70 L 854.53 978.28 C 854.53 977.89 854.33 977.69 853.95 977.66 C 849.73 977.37 845.60 976.72 841.55 975.72 C 841.36 975.67 841.14 975.70 840.96 975.80 C 840.78 975.89 840.64 976.06 840.58 976.25 L 840.23 977.28 C 840.00 977.94 840.23 978.34 840.90 978.48 L 844.67 979.29 C 845.36 979.44 845.65 979.86 845.55 980.55 L 844.68 986.51 C 844.57 987.30 844.12 987.62 843.34 987.47 C 836.64 986.14 830.32 984.34 824.36 982.05 C 823.53 981.74 823.29 981.17 823.62 980.36 L 825.75 975.05 C 826.13 974.12 826.77 973.89 827.66 974.34 C 828.60 974.82 829.77 975.26 831.20 975.67 C 831.59 975.78 831.83 975.63 831.92 975.24 L 832.25 973.89 C 832.37 973.43 832.20 973.13 831.75 972.98 C 827.75 971.74 823.94 970.13 820.34 968.16 C 820.24 968.11 820.13 968.08 820.02 968.07 C 819.91 968.06 819.80 968.07 819.70 968.11 C 819.60 968.14 819.50 968.20 819.42 968.27 C 819.34 968.34 819.27 968.43 819.23 968.53 L 818.72 969.61 C 818.49 970.08 818.61 970.42 819.09 970.63 L 822.50 972.19 C 823.25 972.52 823.46 973.07 823.12 973.81 L 820.73 979.18 C 820.38 979.93 819.85 980.13 819.11 979.78 C 813.15 976.95 807.51 973.64 802.20 969.86 C 801.46 969.35 801.37 968.73 801.90 968.01 L 805.41 963.32 C 805.87 962.72 806.40 962.64 807.02 963.07 L 810.40 965.43 C 810.47 965.47 810.53 965.50 810.61 965.52 C 810.68 965.53 810.75 965.53 810.82 965.52 C 810.89 965.50 810.96 965.48 811.02 965.43 C 811.08 965.39 811.13 965.34 811.17 965.28 L 812.00 964.03 C 812.26 963.64 812.20 963.33 811.80 963.08 C 808.21 960.82 804.89 958.22 801.88 955.28 C 801.81 955.22 801.74 955.17 801.66 955.14 C 801.57 955.11 801.49 955.10 801.40 955.10 C 801.31 955.11 801.23 955.13 801.15 955.17 C 801.07 955.21 801.00 955.26 800.95 955.33 L 800.04 956.43 C 799.79 956.75 799.82 957.03 800.12 957.30 L 802.98 959.86 C 803.58 960.40 803.62 960.98 803.12 961.60 L 799.43 966.15 C 798.90 966.81 798.31 966.87 797.66 966.31 C 792.66 962.00 788.11 957.36 784.00 952.37 C 783.40 951.64 783.48 950.99 784.22 950.40 L 788.83 946.78 C 789.40 946.32 789.92 946.38 790.39 946.94 L 793.20 950.25 C 793.24 950.30 793.29 950.34 793.35 950.37 C 793.41 950.40 793.48 950.42 793.54 950.42 C 793.61 950.42 793.68 950.41 793.74 950.38 C 793.80 950.36 793.85 950.32 793.89 950.27 L 794.99 949.08 C 795.26 948.78 795.26 948.48 794.99 948.18 C 792.11 945.08 789.60 941.75 787.46 938.21 C 787.19 937.77 786.84 937.69 786.40 937.97 L 785.43 938.58 C 785.34 938.64 785.25 938.72 785.19 938.82 C 785.12 938.91 785.08 939.02 785.05 939.13 C 785.03 939.25 785.03 939.37 785.06 939.48 C 785.08 939.59 785.13 939.70 785.20 939.79 L 787.39 942.90 C 787.82 943.50 787.74 944.00 787.13 944.42 L 782.20 947.90 C 781.55 948.36 781.00 948.26 780.55 947.60 C 776.91 942.23 773.71 936.55 770.93 930.56 C 770.55 929.75 770.78 929.17 771.62 928.82 L 776.92 926.60 C 777.68 926.29 778.24 926.50 778.58 927.25 L 780.25 930.92 C 780.42 931.30 780.68 931.39 781.04 931.19 L 782.36 930.47 C 782.51 930.39 782.63 930.24 782.68 930.08 C 782.73 929.91 782.72 929.73 782.63 929.57 C 780.71 925.80 779.10 921.83 777.80 917.67 C 777.79 917.61 777.76 917.55 777.72 917.50 C 777.68 917.46 777.63 917.41 777.57 917.39 C 777.51 917.36 777.45 917.34 777.39 917.33 C 777.32 917.33 777.26 917.33 777.20 917.35 L 775.50 917.86 C 775.23 917.94 775.14 918.11 775.24 918.37 L 776.60 922.32 C 776.86 923.08 776.62 923.60 775.86 923.88 L 770.40 925.86 C 769.61 926.15 769.07 925.89 768.79 925.08 C 766.71 918.87 765.08 912.53 763.91 906.06 C 763.77 905.30 764.09 904.87 764.86 904.76 L 770.68 903.99 C 771.52 903.88 772.01 904.24 772.17 905.06 L 772.97 909.20 C 773.00 909.43 773.14 909.52 773.38 909.47 L 775.18 909.06 C 775.49 908.99 775.61 908.80 775.54 908.49 C 774.62 904.16 774.07 899.84 773.89 895.54 C 773.89 895.48 773.88 895.41 773.85 895.36 C 773.82 895.30 773.78 895.24 773.74 895.20 C 773.69 895.16 773.63 895.12 773.58 895.10 C 773.51 895.08 773.45 895.07 773.38 895.07 L 771.60 895.16 C 771.34 895.17 771.21 895.31 771.23 895.57 L 771.49 900.05 C 771.52 900.77 771.18 901.13 770.47 901.14 C 768.45 901.15 766.50 901.34 764.62 901.68 C 763.86 901.82 763.44 901.50 763.38 900.73 C 762.80 894.09 762.88 887.41 763.62 880.70 C 763.71 879.98 764.11 879.67 764.83 879.76 L 770.87 880.53 C 771.52 880.62 771.82 880.99 771.76 881.65 L 771.42 885.96 C 771.40 886.27 771.53 886.43 771.84 886.44 L 773.64 886.54 C 773.93 886.56 774.08 886.42 774.10 886.13 C 774.25 882.10 774.86 878.01 775.92 873.87 C 776.10 873.19 775.85 872.74 775.18 872.51 L 774.60 872.31 C 773.84 872.05 773.37 872.31 773.21 873.09 L 772.41 876.85 C 772.29 877.45 771.92 877.71 771.30 877.62 L 765.12 876.71 C 764.40 876.61 764.11 876.19 764.25 875.47 C 765.47 868.90 767.29 862.52 769.73 856.35 C 770.03 855.57 770.58 855.34 771.36 855.65 L 776.59 857.78 C 777.37 858.10 777.62 858.66 777.35 859.45 L 776.10 863.20 C 775.93 863.67 776.10 863.96 776.59 864.05 L 777.87 864.31 C 778.05 864.35 778.24 864.32 778.40 864.22 C 778.56 864.13 778.68 863.98 778.74 863.80 C 779.98 859.87 781.57 856.07 783.52 852.40 C 783.80 851.87 783.67 851.48 783.12 851.23 L 782.14 850.79 C 781.64 850.57 781.28 850.70 781.05 851.20 L 779.51 854.58 C 779.18 855.32 778.65 855.51 777.92 855.18 L 772.22 852.62 C 771.65 852.37 771.51 851.97 771.77 851.41 C 774.53 845.62 777.91 839.88 781.90 834.20 C 782.40 833.48 783.00 833.38 783.71 833.91 L 788.35 837.43 C 788.99 837.91 789.08 838.48 788.62 839.14 L 786.29 842.44 C 786.08 842.75 786.12 843.01 786.42 843.22 L 787.80 844.20 C 788.09 844.39 788.32 844.35 788.50 844.06 C 790.77 840.39 793.42 837.03 796.43 833.96 C 796.55 833.84 796.61 833.69 796.61 833.52 C 796.61 833.36 796.54 833.21 796.42 833.09 L 795.23 831.91 C 794.98 831.68 794.75 831.69 794.52 831.94 L 791.99 834.92 C 791.38 835.62 790.73 835.67 790.01 835.09 L 785.57 831.46 C 784.90 830.91 784.85 830.32 785.41 829.67 C 789.66 824.79 794.27 820.29 799.24 816.18 C 800.05 815.50 800.79 815.58 801.45 816.42 L 804.71 820.58 C 805.32 821.37 805.24 822.09 804.48 822.73 L 801.39 825.32 C 801.20 825.48 801.19 825.65 801.37 825.83 L 802.75 827.24 C 802.92 827.41 803.10 827.42 803.27 827.25 C 806.49 824.32 809.93 821.75 813.60 819.55 C 814.03 819.29 814.11 818.95 813.83 818.53 L 813.17 817.54 C 812.84 817.05 812.43 816.97 811.93 817.30 L 808.78 819.41 C 808.19 819.81 807.69 819.72 807.27 819.14 L 803.82 814.26 C 803.33 813.58 803.43 813.00 804.13 812.53 C 809.58 808.89 815.23 805.72 821.11 803.00 C 821.96 802.60 822.57 802.84 822.93 803.71 L 825.11 808.93 C 825.43 809.72 825.21 810.29 824.43 810.64 L 820.96 812.23 C 820.51 812.44 820.39 812.76 820.62 813.20 L 821.14 814.28 C 821.19 814.38 821.25 814.46 821.33 814.53 C 821.41 814.60 821.50 814.65 821.60 814.68 C 821.70 814.72 821.80 814.73 821.91 814.72 C 822.01 814.72 822.11 814.69 822.21 814.64 C 825.91 812.79 829.90 811.18 834.16 809.81 C 834.22 809.79 834.27 809.76 834.32 809.73 C 834.36 809.69 834.40 809.64 834.42 809.59 C 834.45 809.54 834.46 809.48 834.47 809.42 C 834.47 809.37 834.46 809.31 834.45 809.25 L 833.91 807.65 C 833.81 807.33 833.59 807.23 833.26 807.33 L 829.30 808.68 C 828.61 808.91 828.13 808.69 827.88 808.00 L 825.88 802.51 C 825.59 801.70 825.85 801.15 826.65 800.86 C 832.85 798.68 839.14 797.07 845.53 796.01 C 846.41 795.87 846.90 796.23 847.00 797.11 L 847.75 802.90 C 847.84 803.65 847.51 804.10 846.76 804.23 L 842.70 804.95 C 842.58 804.97 842.47 805.04 842.40 805.14 C 842.33 805.24 842.30 805.36 842.33 805.48 L 842.65 807.30 C 842.71 807.60 842.88 807.71 843.17 807.64 C 847.50 806.65 851.76 806.10 855.98 805.99 C 856.42 805.99 856.64 805.76 856.63 805.31 L 856.62 803.73 C 856.61 803.40 856.44 803.25 856.11 803.27 L 851.71 803.61 C 851.10 803.66 850.76 803.38 850.70 802.77 L 850.03 796.65 C 849.96 795.92 850.28 795.51 851.01 795.44 C 857.86 794.75 864.68 794.87 871.49 795.81 C 871.87 795.87 872.04 796.09 872.00 796.47 L 871.13 803.32 C 871.08 803.73 870.85 803.91 870.45 803.88 L 865.75 803.49 C 865.41 803.47 865.23 803.62 865.22 803.97 L 865.13 805.56 C 865.13 805.63 865.14 805.71 865.17 805.77 C 865.19 805.84 865.23 805.90 865.27 805.96 C 865.32 806.01 865.38 806.06 865.45 806.09 C 865.51 806.12 865.58 806.14 865.65 806.14 C 869.89 806.36 873.97 806.98 877.89 808.02 C 878.61 808.21 879.06 807.95 879.25 807.23 L 879.45 806.50 C 879.61 805.88 879.38 805.48 878.75 805.31 C 876.96 804.84 875.72 804.60 875.01 804.59 C 874.29 804.59 873.99 804.24 874.10 803.52 L 875.00 797.17 C 875.11 796.46 875.51 796.17 876.22 796.30 C 882.68 797.48 889.06 799.29 895.36 801.76 C 896.17 802.08 896.41 802.63 896.08 803.44 L 893.92 808.70 C 893.62 809.45 893.09 809.69 892.33 809.43 L 888.49 808.13 C 888.07 807.99 887.82 808.13 887.74 808.56 L 887.48 809.86 C 887.38 810.34 887.57 810.65 888.02 810.80 C 891.96 812.06 895.74 813.66 899.37 815.60 C 899.85 815.86 900.21 815.74 900.45 815.26 L 901.00 814.14 C 901.22 813.72 901.11 813.40 900.67 813.20 L 897.15 811.56 C 896.43 811.23 896.24 810.70 896.57 809.97 L 899.00 804.52 C 899.32 803.79 899.83 803.61 900.54 803.95 C 906.64 806.89 912.29 810.23 917.50 813.95 C 918.25 814.49 918.35 815.12 917.78 815.85 L 914.34 820.39 C 913.84 821.04 913.26 821.13 912.60 820.66 L 909.34 818.39 C 909.01 818.16 908.73 818.22 908.50 818.54 L 907.54 819.91 C 907.51 819.96 907.48 820.02 907.47 820.08 C 907.46 820.14 907.46 820.21 907.47 820.27 C 907.49 820.33 907.51 820.39 907.55 820.44 C 907.59 820.49 907.63 820.54 907.68 820.57 C 911.29 822.82 914.64 825.48 917.73 828.55 C 918.06 828.88 918.38 828.88 918.68 828.52 L 919.88 827.19 C 920.08 826.97 920.06 826.76 919.84 826.57 L 916.60 823.82 C 916.05 823.37 916.01 822.87 916.47 822.33 L 920.35 817.68 C 920.89 817.03 921.49 816.98 922.13 817.53 C 927.05 821.81 931.73 826.65 936.14 832.06 C 936.41 832.38 936.38 832.67 936.05 832.92 L 930.46 837.33 C 930.17 837.56 929.91 837.54 929.67 837.27 L 926.38 833.57 C 926.24 833.40 926.09 833.40 925.92 833.55 L 924.50 834.87 C 924.36 835.00 924.35 835.14 924.48 835.28 C 927.41 838.60 930.02 842.05 932.33 845.66 C 932.52 845.98 932.78 846.04 933.11 845.85 L 934.43 845.09 C 934.50 845.05 934.57 845.00 934.61 844.93 C 934.66 844.87 934.69 844.80 934.71 844.72 C 934.73 844.64 934.73 844.56 934.72 844.48 C 934.70 844.40 934.67 844.33 934.62 844.26 L 932.34 840.91 C 931.91 840.28 932.00 839.75 932.62 839.31 L 937.41 835.92 C 938.12 835.43 938.72 835.54 939.20 836.25 C 942.87 841.73 946.06 847.40 948.77 853.28 C 949.13 854.05 948.92 854.60 948.13 854.93 L 942.72 857.20 C 942.00 857.50 941.48 857.30 941.15 856.59 L 939.51 853.04 C 939.30 852.59 938.97 852.47 938.52 852.68 L 937.43 853.18 C 937.34 853.23 937.25 853.29 937.18 853.37 C 937.11 853.45 937.05 853.55 937.02 853.65 C 936.98 853.75 936.97 853.86 936.98 853.96 C 936.99 854.07 937.02 854.18 937.07 854.27 C 939.04 858.11 940.64 862.05 941.86 866.08 C 941.97 866.45 942.21 866.57 942.57 866.45 L 944.10 865.93 C 944.16 865.91 944.22 865.88 944.27 865.83 C 944.33 865.79 944.37 865.73 944.40 865.67 C 944.43 865.61 944.45 865.54 944.45 865.47 C 944.46 865.40 944.45 865.34 944.42 865.27 L 943.09 861.46 C 942.82 860.70 943.07 860.17 943.84 859.89 L 949.30 857.90 C 950.09 857.62 950.61 857.87 950.88 858.65 C 952.88 864.59 954.50 870.88 955.75 877.54 C 955.90 878.41 955.55 878.90 954.68 879.02 L 949.00 879.82 C 948.16 879.94 947.67 879.59 947.51 878.76 L 946.82 874.99 C 946.73 874.52 946.45 874.32 945.99 874.40 L 944.60 874.63 C 944.52 874.64 944.45 874.67 944.38 874.72 C 944.31 874.76 944.26 874.81 944.21 874.88 C 944.17 874.94 944.14 875.02 944.12 875.10 C 944.11 875.17 944.11 875.25 944.12 875.33 C 945.07 879.59 945.58 883.91 945.64 888.30 C 945.65 888.65 945.83 888.82 946.18 888.79 L 947.88 888.65 C 948.26 888.62 948.45 888.42 948.42 888.03 L 948.17 883.96 C 948.12 883.13 948.51 882.71 949.35 882.69 C 951.44 882.65 953.35 882.45 955.09 882.08 C 955.84 881.92 956.25 882.23 956.32 882.99 C 956.94 889.94 956.86 896.58 956.07 902.91 C 955.96 903.73 955.50 904.08 954.68 903.98 L 949.01 903.26 C 948.22 903.15 947.85 902.70 947.91 901.89 L 948.26 897.62 C 948.27 897.57 948.26 897.52 948.25 897.48 C 948.23 897.43 948.21 897.39 948.17 897.35 C 948.14 897.31 948.10 897.28 948.06 897.26 C 948.01 897.24 947.96 897.23 947.91 897.23 L 946.10 897.21 C 945.98 897.21 945.87 897.25 945.78 897.33 C 945.70 897.40 945.64 897.51 945.63 897.62 C 945.36 901.65 944.73 905.79 943.75 910.03 C 943.61 910.61 943.82 911.00 944.36 911.21 L 945.14 911.52 C 945.75 911.77 946.15 911.58 946.34 910.94 C 946.79 909.39 947.05 908.16 947.12 907.24 C 947.17 906.41 947.61 906.05 948.45 906.17 L 954.38 907.03 C 955.24 907.16 955.58 907.65 955.41 908.50 C 954.11 915.38 952.27 921.70 949.91 927.46 C 949.62 928.20 949.10 928.41 948.36 928.12 L 942.89 925.92 C 942.25 925.66 942.04 925.20 942.26 924.54 L 943.62 920.57 C 943.76 920.16 943.62 919.91 943.20 919.81 L 941.88 919.50 C 941.40 919.39 941.08 919.57 940.92 920.05 C 939.69 923.98 938.09 927.76 936.12 931.41 C 935.87 931.88 935.98 932.23 936.45 932.47 L 937.58 933.05 C 938.00 933.26 938.32 933.16 938.51 932.73 L 940.15 929.25 C 940.50 928.50 941.05 928.29 941.82 928.63 L 947.16 931.01 C 947.95 931.37 948.15 931.92 947.77 932.69 C 944.92 938.61 941.59 944.23 937.78 949.54 C 937.26 950.26 936.65 950.36 935.93 949.82 L 931.39 946.39 C 930.72 945.88 930.62 945.28 931.11 944.59 L 933.30 941.41 C 933.57 941.03 933.51 940.72 933.12 940.46 L 931.88 939.64 C 931.82 939.61 931.76 939.58 931.69 939.57 C 931.63 939.55 931.56 939.56 931.50 939.57 C 931.43 939.58 931.37 939.61 931.32 939.65 C 931.27 939.69 931.22 939.74 931.18 939.79 C 928.90 943.35 926.28 946.62 923.34 949.59 C 922.91 950.01 922.91 950.43 923.34 950.85 L 924.21 951.71 C 924.58 952.09 924.94 952.07 925.28 951.66 L 927.83 948.73 C 928.35 948.13 928.91 948.09 929.51 948.59 L 934.15 952.48 C 934.76 952.99 934.80 953.54 934.27 954.13 C 930.07 958.86 925.42 963.39 920.35 967.74 C 919.62 968.36 918.98 968.29 918.39 967.54 L 914.91 963.12 C 914.34 962.39 914.41 961.72 915.12 961.12 L 918.15 958.59 C 918.47 958.33 918.48 958.06 918.17 957.78 L 917.10 956.76 C 916.78 956.47 916.47 956.47 916.14 956.75 C 912.97 959.62 909.56 962.19 905.90 964.46 C 905.63 964.63 905.59 964.86 905.76 965.12 L 906.73 966.56 C 906.79 966.66 906.90 966.73 907.02 966.76 C 907.14 966.78 907.26 966.76 907.37 966.69 L 911.00 964.32 C 911.54 963.97 911.99 964.05 912.36 964.57 L 915.82 969.43 C 916.32 970.14 916.21 970.73 915.50 971.21 C 910.15 974.83 904.50 978.02 898.55 980.80 C 897.73 981.18 897.14 980.95 896.78 980.11 L 894.54 974.76 C 894.24 974.03 894.44 973.51 895.15 973.18 L 898.70 971.56 C 899.20 971.32 899.32 970.96 899.05 970.46 L 898.50 969.44 C 898.26 969.00 897.92 968.89 897.47 969.12 C 893.67 971.06 889.65 972.68 885.41 973.97 C 885.25 974.02 885.18 974.13 885.23 974.30 L 885.75 976.28 C 885.81 976.50 885.94 976.57 886.15 976.51 C 887.53 976.14 888.85 975.66 890.09 975.09 C 891.07 974.63 891.70 974.93 891.98 975.98 C 892.47 977.90 893.13 979.67 893.96 981.28 C 894.35 982.05 894.14 982.58 893.33 982.85 C 887.03 984.95 880.71 986.59 874.36 987.76 C 873.42 987.93 872.88 987.54 872.74 986.60 L 871.87 981.02 C 871.74 980.21 872.08 979.73 872.89 979.57 L 876.85 978.82 C 876.93 978.81 877.00 978.78 877.08 978.73 C 877.14 978.69 877.21 978.63 877.25 978.56 C 877.30 978.49 877.33 978.41 877.35 978.33 C 877.37 978.25 877.37 978.16 877.36 978.08 L 877.07 976.56 C 877.00 976.22 876.80 976.09 876.47 976.16 C 872.16 977.10 867.87 977.64 863.58 977.80 C 863.28 977.82 863.13 977.97 863.13 978.26 L 863.13 980.04 C 863.13 980.39 863.31 980.56 863.66 980.53 Z M 778.45 914.05 C 779.30 913.82 779.85 914.13 780.07 915.00 C 781.37 920.22 783.35 925.21 786.02 929.96 C 786.54 930.88 786.34 931.59 785.41 932.09 L 780.63 934.69 C 779.76 935.16 779.11 934.96 778.68 934.06 L 776.90 930.32 C 776.88 930.27 776.84 930.22 776.80 930.17 C 776.75 930.13 776.70 930.10 776.64 930.08 C 776.58 930.06 776.52 930.05 776.46 930.06 C 776.40 930.07 776.34 930.08 776.28 930.11 L 774.75 930.90 C 774.48 931.04 774.41 931.25 774.53 931.52 C 776.54 935.97 778.89 940.20 781.58 944.22 C 781.74 944.48 781.94 944.50 782.16 944.30 L 783.48 943.13 C 783.74 942.90 783.77 942.63 783.60 942.33 L 781.46 938.82 C 781.08 938.20 781.20 937.70 781.84 937.32 L 787.14 934.18 C 787.73 933.84 788.19 933.96 788.53 934.54 C 791.58 939.64 795.12 944.39 799.15 948.78 C 799.29 948.93 799.28 949.07 799.14 949.20 L 793.65 954.49 C 793.62 954.52 793.59 954.54 793.54 954.56 C 793.50 954.58 793.46 954.58 793.42 954.58 C 793.37 954.58 793.33 954.57 793.29 954.55 C 793.25 954.53 793.22 954.50 793.18 954.47 L 789.60 950.58 C 789.52 950.50 789.41 950.45 789.30 950.44 C 789.19 950.43 789.08 950.46 788.99 950.53 L 787.70 951.58 C 787.32 951.88 787.30 952.20 787.63 952.54 L 797.46 962.59 C 797.75 962.90 798.04 962.88 798.32 962.55 L 799.49 961.16 C 799.70 960.90 799.68 960.65 799.45 960.42 C 798.20 959.20 797.17 958.32 796.36 957.77 C 795.61 957.26 795.55 956.70 796.20 956.06 L 800.49 951.82 C 801.14 951.17 801.78 951.18 802.42 951.84 C 806.25 955.75 810.49 959.12 815.15 961.95 C 815.90 962.40 816.05 963.00 815.60 963.74 L 812.51 968.75 C 812.11 969.41 811.59 969.53 810.95 969.11 L 807.23 966.68 C 807.01 966.53 806.83 966.57 806.67 966.77 L 805.61 968.23 C 805.57 968.28 805.54 968.34 805.53 968.40 C 805.51 968.46 805.51 968.52 805.52 968.58 C 805.53 968.64 805.56 968.70 805.59 968.75 C 805.62 968.80 805.66 968.85 805.72 968.88 C 809.56 971.58 813.56 974.00 817.71 976.14 C 818.19 976.39 818.57 976.27 818.85 975.80 L 819.42 974.78 C 819.68 974.34 819.58 973.99 819.13 973.74 L 815.39 971.66 C 814.79 971.32 814.65 970.85 815.00 970.24 L 817.89 965.00 C 818.32 964.24 818.91 964.08 819.66 964.54 C 824.45 967.48 829.54 969.65 834.92 971.05 C 835.66 971.25 835.92 971.71 835.71 972.43 L 833.99 978.33 C 833.75 979.14 833.24 979.40 832.45 979.12 L 828.65 977.76 C 828.23 977.61 827.93 977.74 827.77 978.16 L 827.34 979.31 C 827.12 979.86 827.29 980.23 827.85 980.43 C 832.18 982.02 836.63 983.26 841.18 984.17 C 841.29 984.19 841.40 984.19 841.51 984.17 C 841.62 984.15 841.72 984.10 841.81 984.04 C 841.90 983.97 841.98 983.89 842.03 983.80 C 842.09 983.71 842.13 983.60 842.14 983.49 L 842.28 982.46 C 842.32 982.24 842.26 982.01 842.13 981.83 C 842.00 981.64 841.81 981.51 841.59 981.46 L 837.58 980.57 C 836.89 980.42 836.64 980.00 836.80 979.33 L 838.29 973.46 C 838.52 972.58 839.07 972.27 839.95 972.52 C 845.18 974.03 850.57 974.80 856.12 974.84 C 857.03 974.85 857.48 975.31 857.46 976.22 L 857.29 981.97 C 857.27 982.85 856.82 983.25 855.95 983.19 L 851.62 982.89 C 851.56 982.89 851.50 982.89 851.45 982.91 C 851.40 982.93 851.35 982.96 851.31 983.00 C 851.27 983.04 851.24 983.09 851.21 983.14 C 851.19 983.19 851.18 983.25 851.17 983.30 L 851.12 985.25 C 851.12 985.52 851.25 985.66 851.51 985.69 C 856.29 986.07 861.01 986.14 865.70 985.91 C 865.80 985.91 865.91 985.88 866.01 985.83 C 866.10 985.78 866.19 985.71 866.25 985.62 C 866.32 985.53 866.36 985.43 866.38 985.32 C 866.40 985.22 866.40 985.11 866.38 985.00 C 866.27 984.60 866.24 984.18 866.27 983.77 C 866.32 983.33 866.11 983.12 865.66 983.13 L 861.17 983.24 C 860.53 983.25 860.21 982.94 860.21 982.30 L 860.20 976.20 C 860.20 975.36 860.62 974.93 861.47 974.94 C 867.24 974.99 872.67 974.34 877.77 972.98 C 878.62 972.76 879.13 973.08 879.34 973.92 L 880.62 979.56 C 880.83 980.43 880.50 980.95 879.62 981.10 L 875.67 981.81 C 875.29 981.88 875.13 982.12 875.20 982.50 L 875.45 984.02 C 875.52 984.50 875.80 984.70 876.28 984.61 C 880.85 983.80 885.38 982.61 889.90 981.05 C 890.30 980.92 890.42 980.66 890.27 980.27 L 889.76 978.94 C 889.71 978.79 889.60 978.67 889.46 978.60 C 889.32 978.53 889.16 978.51 889.00 978.54 C 887.37 978.94 886.12 979.34 885.24 979.72 C 884.36 980.10 883.80 979.83 883.55 978.91 L 881.97 973.15 C 881.76 972.42 882.03 971.96 882.76 971.76 C 888.19 970.31 893.32 968.26 898.14 965.61 C 898.92 965.18 899.53 965.36 899.96 966.14 L 902.73 971.25 C 903.15 972.03 902.96 972.61 902.15 972.99 L 898.20 974.85 C 898.16 974.87 898.12 974.90 898.09 974.93 C 898.06 974.96 898.04 975.00 898.02 975.04 C 898.01 975.08 898.00 975.12 898.00 975.17 C 898.01 975.21 898.02 975.25 898.03 975.29 L 898.85 977.09 C 898.95 977.30 899.10 977.37 899.32 977.27 C 903.72 975.27 907.90 973.00 911.88 970.44 C 911.98 970.38 912.06 970.30 912.12 970.20 C 912.18 970.11 912.22 970.00 912.24 969.89 C 912.25 969.78 912.24 969.66 912.21 969.56 C 912.17 969.45 912.11 969.35 912.03 969.27 L 911.26 968.45 C 910.90 968.07 910.49 968.01 910.03 968.29 L 906.91 970.20 C 906.21 970.63 905.64 970.50 905.22 969.78 L 902.27 964.78 C 901.83 964.03 901.98 963.43 902.74 962.99 C 907.65 960.11 912.07 956.84 916.00 953.18 C 916.64 952.59 917.25 952.61 917.85 953.24 L 921.87 957.48 C 922.40 958.05 922.38 958.60 921.80 959.12 L 918.59 962.09 C 918.50 962.17 918.44 962.28 918.43 962.40 C 918.42 962.52 918.45 962.64 918.52 962.74 L 919.68 964.25 C 919.80 964.40 919.93 964.41 920.08 964.29 C 923.76 961.17 927.22 957.84 930.43 954.28 C 930.50 954.21 930.55 954.12 930.59 954.03 C 930.62 953.94 930.63 953.84 930.63 953.74 C 930.62 953.64 930.60 953.55 930.55 953.46 C 930.51 953.37 930.45 953.29 930.38 953.23 L 929.42 952.42 C 929.02 952.07 928.64 952.09 928.28 952.48 L 925.61 955.37 C 925.04 955.99 924.46 956.00 923.88 955.40 L 919.80 951.27 C 919.16 950.62 919.17 949.97 919.83 949.32 C 923.71 945.48 927.07 941.24 929.90 936.59 C 930.37 935.83 930.98 935.68 931.74 936.15 L 936.60 939.14 C 937.35 939.60 937.48 940.20 937.00 940.93 L 934.62 944.52 C 934.50 944.71 934.52 944.86 934.71 944.98 L 936.21 946.04 C 936.42 946.20 936.62 946.16 936.77 945.94 C 939.48 942.11 941.92 938.22 944.09 934.28 C 944.43 933.65 944.29 933.17 943.66 932.82 L 942.99 932.44 C 942.36 932.09 941.88 932.23 941.53 932.86 L 939.71 936.20 C 939.32 936.91 938.77 937.07 938.05 936.67 L 932.92 933.78 C 932.20 933.38 932.04 932.81 932.47 932.09 C 935.42 927.05 937.61 922.00 939.02 916.92 C 939.25 916.12 939.77 915.83 940.58 916.06 L 946.35 917.76 C 947.12 917.99 947.37 918.48 947.10 919.24 L 945.76 922.98 C 945.61 923.43 945.74 923.75 946.17 923.93 L 947.38 924.46 C 947.80 924.65 948.10 924.53 948.26 924.10 C 950.00 919.61 951.30 914.98 952.18 910.21 C 952.20 910.12 952.18 910.03 952.13 909.96 C 952.07 909.88 952.00 909.83 951.90 909.81 L 949.95 909.51 C 949.71 909.48 949.56 909.58 949.50 909.81 L 948.60 914.03 C 948.43 914.79 947.97 915.08 947.23 914.89 L 941.38 913.43 C 940.49 913.21 940.16 912.65 940.41 911.75 C 942.03 906.08 942.84 900.72 942.82 895.66 C 942.81 894.74 943.26 894.29 944.18 894.32 L 950.47 894.50 C 951.02 894.51 951.27 894.79 951.24 895.34 L 950.88 900.01 C 950.88 900.08 950.89 900.15 950.91 900.21 C 950.93 900.27 950.97 900.33 951.01 900.38 C 951.06 900.43 951.12 900.48 951.18 900.50 C 951.24 900.53 951.31 900.55 951.38 900.55 L 953.29 900.62 C 953.37 900.62 953.44 900.60 953.50 900.55 C 953.56 900.50 953.59 900.43 953.60 900.36 C 954.02 895.46 954.10 890.58 953.84 885.70 C 953.82 885.40 953.67 885.27 953.38 885.31 L 951.43 885.53 C 951.17 885.57 951.04 885.72 951.04 885.98 L 951.20 890.09 C 951.23 891.04 950.77 891.52 949.82 891.52 L 944.16 891.52 C 943.35 891.52 942.94 891.12 942.95 890.30 C 942.99 885.01 942.32 879.55 940.93 873.93 C 940.74 873.11 941.05 872.61 941.88 872.41 L 947.83 871.03 C 948.49 870.88 948.88 871.14 949.00 871.81 L 949.78 876.12 C 949.81 876.25 949.88 876.37 950.00 876.45 C 950.11 876.52 950.24 876.55 950.38 876.53 L 952.21 876.25 C 952.56 876.19 952.70 875.99 952.63 875.63 C 951.74 870.85 950.50 866.16 948.92 861.58 C 948.87 861.42 948.76 861.37 948.60 861.41 L 946.82 861.94 C 946.48 862.05 946.37 862.27 946.47 862.60 L 947.63 866.66 C 947.88 867.49 947.58 868.01 946.75 868.24 L 941.33 869.70 C 940.41 869.95 939.84 869.62 939.62 868.70 C 938.29 863.48 936.28 858.46 933.59 853.64 C 933.14 852.85 933.32 852.23 934.12 851.79 L 939.12 849.04 C 939.97 848.58 940.60 848.78 941.00 849.66 L 942.71 853.33 C 942.87 853.69 943.13 853.78 943.50 853.61 L 944.83 852.97 C 944.99 852.89 945.11 852.75 945.17 852.59 C 945.23 852.41 945.22 852.23 945.14 852.06 C 943.16 847.83 940.85 843.73 938.21 839.77 C 938.16 839.70 938.10 839.64 938.03 839.60 C 937.96 839.56 937.88 839.53 937.79 839.52 C 937.71 839.50 937.63 839.51 937.55 839.53 C 937.47 839.55 937.39 839.59 937.33 839.64 L 936.33 840.45 C 935.95 840.76 935.89 841.12 936.13 841.52 L 938.18 844.88 C 938.61 845.56 938.47 846.10 937.78 846.50 L 932.63 849.53 C 931.94 849.94 931.39 849.79 931.00 849.09 C 928.24 844.24 924.95 839.82 921.12 835.83 C 920.54 835.22 920.56 834.62 921.16 834.03 L 925.40 829.91 C 925.99 829.35 926.54 829.37 927.09 829.96 L 930.00 833.13 C 930.24 833.39 930.49 833.41 930.76 833.18 L 932.02 832.16 C 932.28 831.95 932.30 831.72 932.09 831.46 C 928.99 827.84 925.71 824.45 922.25 821.29 C 921.87 820.95 921.51 820.98 921.20 821.38 L 920.23 822.57 C 920.13 822.69 920.09 822.83 920.10 822.98 C 920.11 823.12 920.18 823.25 920.28 823.35 L 923.48 826.28 C 923.99 826.75 924.00 827.24 923.51 827.73 L 919.21 832.08 C 918.58 832.71 917.96 832.70 917.36 832.06 C 913.43 827.95 909.13 824.56 904.46 821.90 C 903.72 821.48 903.58 820.91 904.01 820.18 L 907.17 815.00 C 907.59 814.33 908.12 814.21 908.77 814.65 L 912.40 817.09 C 912.59 817.22 912.75 817.19 912.88 817.01 L 914.05 815.39 C 914.08 815.36 914.09 815.33 914.10 815.29 C 914.11 815.25 914.11 815.22 914.11 815.18 C 914.10 815.14 914.09 815.11 914.07 815.08 C 914.05 815.05 914.02 815.02 914.00 815.00 C 910.17 812.26 906.16 809.81 901.96 807.65 C 901.41 807.37 901.00 807.51 900.75 808.07 L 900.32 809.01 C 900.09 809.50 900.22 809.88 900.70 810.14 L 904.22 812.06 C 904.89 812.43 905.04 812.95 904.66 813.61 L 901.75 818.81 C 901.35 819.51 900.81 819.66 900.12 819.25 C 895.21 816.33 890.12 814.17 884.85 812.76 C 884.00 812.53 883.71 812.00 883.97 811.17 C 885.04 807.55 885.62 805.63 885.68 805.41 C 885.92 804.62 886.37 804.35 887.03 804.60 C 888.27 805.06 889.67 805.55 891.25 806.08 C 891.35 806.12 891.47 806.11 891.58 806.06 C 891.68 806.01 891.76 805.92 891.80 805.81 L 892.34 804.26 C 892.46 803.92 892.35 803.68 892.01 803.55 C 887.42 801.74 882.83 800.42 878.23 799.60 C 877.88 799.53 877.67 799.68 877.62 800.03 L 877.37 801.50 C 877.29 801.93 877.47 802.19 877.88 802.28 L 881.98 803.16 C 882.75 803.33 883.04 803.79 882.85 804.56 L 881.38 810.32 C 881.15 811.25 880.58 811.58 879.66 811.32 C 874.50 809.86 868.80 808.75 863.38 808.98 C 862.60 809.01 862.21 808.64 862.23 807.85 L 862.37 801.71 C 862.38 800.76 862.87 800.36 863.80 800.50 C 865.19 800.72 866.68 800.82 868.26 800.80 C 868.43 800.80 868.52 800.72 868.52 800.55 L 868.60 798.24 C 868.60 798.08 868.52 798.00 868.37 798.00 L 854.10 797.72 C 854.00 797.72 853.90 797.74 853.82 797.77 C 853.73 797.81 853.65 797.87 853.58 797.93 C 853.51 798.00 853.46 798.08 853.42 798.17 C 853.39 798.26 853.37 798.36 853.38 798.45 L 853.41 799.99 C 853.43 800.45 853.66 800.66 854.12 800.65 L 858.22 800.54 C 859.12 800.51 859.55 800.96 859.50 801.86 C 859.38 803.72 859.41 805.63 859.59 807.58 C 859.65 808.37 859.29 808.76 858.50 808.77 C 853.01 808.80 847.50 809.49 841.98 810.82 C 841.10 811.03 840.57 810.70 840.37 809.83 L 839.01 804.06 C 838.84 803.34 839.12 802.90 839.86 802.75 L 843.84 801.97 C 844.32 801.88 844.53 801.59 844.47 801.09 L 844.27 799.72 C 844.22 799.27 843.96 799.09 843.50 799.16 C 838.85 799.93 834.27 801.12 829.77 802.72 C 829.40 802.86 829.28 803.12 829.41 803.49 L 829.93 804.94 C 830.05 805.27 830.28 805.39 830.62 805.30 C 832.35 804.84 833.65 804.41 834.55 804.02 C 835.37 803.67 835.89 803.93 836.12 804.79 L 837.67 810.50 C 837.91 811.36 837.59 811.90 836.73 812.12 C 831.37 813.46 826.30 815.49 821.52 818.21 C 820.77 818.64 820.19 818.47 819.77 817.71 L 816.92 812.49 C 816.51 811.74 816.70 811.18 817.48 810.81 L 821.18 809.08 C 821.61 808.89 821.72 808.58 821.51 808.16 L 820.95 806.95 C 820.76 806.56 820.47 806.45 820.08 806.63 C 815.96 808.52 811.89 810.75 807.88 813.30 C 807.39 813.62 807.32 814.00 807.67 814.45 L 808.38 815.37 C 808.69 815.78 809.07 815.86 809.51 815.58 L 812.96 813.47 C 813.55 813.11 814.02 813.23 814.38 813.83 L 817.52 819.20 C 817.89 819.82 817.76 820.30 817.14 820.66 C 812.35 823.43 807.84 826.76 803.62 830.65 C 803.04 831.18 802.48 831.16 801.93 830.59 L 797.88 826.34 C 797.31 825.74 797.33 825.16 797.93 824.60 L 801.00 821.80 C 801.34 821.50 801.35 821.17 801.04 820.82 L 800.24 819.89 C 799.93 819.54 799.60 819.51 799.25 819.82 C 795.74 822.84 792.43 826.06 789.32 829.47 C 789.18 829.62 789.11 829.82 789.12 830.02 C 789.12 830.23 789.21 830.42 789.36 830.56 L 790.47 831.62 C 790.51 831.66 790.56 831.70 790.62 831.72 C 790.68 831.75 790.74 831.76 790.80 831.76 C 790.87 831.76 790.93 831.74 790.98 831.72 C 791.04 831.69 791.09 831.66 791.13 831.61 L 794.17 828.43 C 794.74 827.85 795.30 827.85 795.87 828.41 L 799.88 832.38 C 800.58 833.08 800.58 833.78 799.86 834.47 C 795.95 838.23 792.64 842.44 789.95 847.10 C 789.45 847.96 788.77 848.13 787.92 847.61 L 783.05 844.62 C 782.18 844.09 782.08 843.43 782.74 842.64 C 783.41 841.83 784.18 840.73 785.03 839.35 C 785.19 839.11 785.14 838.90 784.90 838.73 L 783.45 837.69 C 783.19 837.51 782.98 837.55 782.79 837.81 C 780.08 841.71 777.67 845.68 775.60 849.73 C 775.34 850.24 775.45 850.63 775.95 850.91 L 776.88 851.46 C 777.37 851.75 777.75 851.64 778.00 851.14 L 779.91 847.48 C 780.27 846.81 780.77 846.65 781.43 847.02 L 786.70 849.95 C 787.47 850.38 787.62 850.97 787.16 851.72 C 784.35 856.32 782.08 861.54 780.84 866.73 C 780.62 867.62 780.08 867.95 779.20 867.70 L 773.45 866.12 C 772.62 865.89 772.35 865.38 772.62 864.57 L 774.00 860.51 C 774.04 860.39 774.04 860.26 773.98 860.14 C 773.93 860.02 773.83 859.94 773.72 859.89 L 772.15 859.30 C 771.84 859.18 771.61 859.28 771.49 859.60 C 769.80 864.06 768.48 868.52 767.50 872.99 C 767.39 873.51 767.60 873.84 768.12 873.97 L 769.32 874.28 C 769.83 874.41 770.14 874.23 770.25 873.71 L 771.07 869.92 C 771.26 869.05 771.79 868.72 772.65 868.93 L 778.28 870.35 C 779.16 870.57 779.48 871.12 779.23 871.98 C 777.67 877.32 776.91 882.68 776.93 888.06 C 776.94 889.05 776.45 889.54 775.46 889.51 L 769.63 889.36 C 768.76 889.34 768.36 888.88 768.43 888.01 L 768.84 883.53 C 768.84 883.40 768.78 883.34 768.65 883.33 L 766.39 883.13 C 766.22 883.12 766.12 883.20 766.11 883.37 C 765.64 888.21 765.54 893.04 765.79 897.88 C 765.80 897.96 765.82 898.03 765.85 898.09 C 765.88 898.16 765.93 898.22 765.98 898.27 C 766.04 898.31 766.11 898.35 766.18 898.37 C 766.25 898.40 766.32 898.41 766.39 898.40 L 768.13 898.28 C 768.45 898.26 768.61 898.10 768.61 897.78 L 768.54 893.57 C 768.53 892.70 768.96 892.26 769.84 892.26 L 775.45 892.26 C 776.30 892.26 776.74 892.70 776.74 893.56 C 776.73 898.84 777.41 904.24 778.79 909.76 C 779.01 910.63 778.69 911.16 777.82 911.36 L 771.99 912.72 C 771.25 912.89 770.81 912.60 770.67 911.86 L 769.90 907.77 C 769.83 907.35 769.57 907.17 769.14 907.24 L 767.63 907.50 C 767.54 907.52 767.46 907.55 767.38 907.60 C 767.30 907.65 767.24 907.72 767.19 907.80 C 767.14 907.87 767.10 907.96 767.08 908.05 C 767.07 908.14 767.07 908.23 767.09 908.32 C 768.02 913.17 769.22 917.74 770.68 922.02 C 770.71 922.09 770.75 922.16 770.80 922.21 C 770.85 922.27 770.91 922.31 770.98 922.35 C 771.04 922.38 771.12 922.39 771.19 922.40 C 771.26 922.40 771.34 922.39 771.40 922.36 L 772.85 921.80 C 772.98 921.75 773.09 921.65 773.16 921.52 C 773.22 921.39 773.24 921.24 773.20 921.10 L 771.98 916.88 C 771.78 916.21 772.02 915.78 772.71 915.60 L 778.45 914.05 Z" fill="#e01320" fill-rule="nonzero" node-id="38" stroke="none" target-height="194.17004" target-width="194.14001" target-x="762.802" target-y="794.748"></path><path d="M 935.38 891.83 C 935.38 901.75 933.42 911.58 929.62 920.74 C 925.83 929.91 920.26 938.24 913.25 945.25 C 906.23 952.27 897.90 957.83 888.74 961.63 C 879.57 965.43 869.75 967.38 859.83 967.38 C 839.79 967.38 820.57 959.42 806.40 945.25 C 792.24 931.09 784.27 911.87 784.27 891.83 C 784.27 871.79 792.24 852.58 806.40 838.41 C 820.57 824.24 839.79 816.28 859.83 816.28 C 869.75 816.28 879.57 818.24 888.74 822.03 C 897.90 825.83 906.23 831.39 913.25 838.41 C 920.26 845.42 925.83 853.75 929.62 862.92 C 933.42 872.09 935.38 881.91 935.38 891.83 Z M 930.10 891.83 C 930.10 873.20 922.69 855.33 909.52 842.15 C 896.34 828.97 878.47 821.57 859.84 821.57 C 850.61 821.57 841.47 823.39 832.95 826.92 C 824.42 830.45 816.68 835.63 810.15 842.15 C 803.63 848.67 798.46 856.42 794.92 864.94 C 791.39 873.47 789.58 882.61 789.58 891.83 C 789.58 901.06 791.39 910.20 794.92 918.72 C 798.46 927.24 803.63 934.99 810.15 941.51 C 816.68 948.04 824.42 953.21 832.95 956.74 C 841.47 960.27 850.61 962.09 859.84 962.09 C 878.47 962.09 896.34 954.69 909.52 941.51 C 922.69 928.34 930.10 910.47 930.10 891.83 Z" fill="#e01320" fill-rule="nonzero" node-id="40" stroke="none" target-height="151.09998" target-width="151.09998" target-x="784.275" target-y="816.281"></path><path d="M 923.03 891.83 C 923.03 900.13 921.39 908.35 918.22 916.02 C 915.04 923.68 910.38 930.65 904.51 936.52 C 898.65 942.39 891.68 947.04 884.01 950.22 C 876.34 953.40 868.13 955.03 859.83 955.03 C 843.06 955.03 826.99 948.37 815.14 936.52 C 803.28 924.67 796.63 908.59 796.63 891.83 C 796.63 875.07 803.28 859.00 815.14 847.14 C 826.99 835.29 843.06 828.63 859.83 828.63 C 868.13 828.63 876.34 830.27 884.01 833.44 C 891.68 836.62 898.65 841.27 904.51 847.14 C 910.38 853.01 915.04 859.98 918.22 867.65 C 921.39 875.31 923.03 883.53 923.03 891.83 Z M 853.91 845.27 L 853.91 885.51 C 853.91 885.85 853.74 886.02 853.41 886.02 L 821.92 886.00 C 821.58 886.00 821.42 886.17 821.42 886.50 L 821.41 898.54 C 821.41 898.88 821.58 899.05 821.92 899.05 L 853.41 899.03 C 853.74 899.03 853.91 899.20 853.91 899.53 L 853.92 939.97 C 853.92 940.23 853.79 940.34 853.53 940.30 C 845.13 938.88 837.50 935.31 830.64 929.61 C 830.40 929.42 830.18 929.43 829.97 929.63 L 822.61 936.50 C 822.44 936.66 822.45 936.81 822.63 936.95 C 845.31 954.87 874.30 954.58 897.26 936.83 C 898.07 936.21 898.10 935.54 897.36 934.84 L 892.33 930.16 C 891.57 929.46 890.82 929.46 890.08 930.17 C 884.37 935.56 876.18 938.66 868.49 940.39 C 868.01 940.50 867.77 940.31 867.77 939.82 L 867.78 899.40 C 867.78 899.31 867.81 899.21 867.88 899.15 C 867.95 899.08 868.04 899.04 868.14 899.04 L 899.70 899.04 C 900.08 899.04 900.27 898.85 900.27 898.47 L 900.27 886.70 C 900.27 886.24 900.04 886.01 899.59 886.01 L 868.33 886.02 C 867.95 886.02 867.77 885.84 867.77 885.46 L 867.77 844.88 C 867.77 844.83 867.78 844.78 867.80 844.74 C 867.82 844.70 867.85 844.66 867.89 844.63 C 867.93 844.60 867.97 844.57 868.02 844.56 C 868.07 844.55 868.12 844.55 868.17 844.56 C 873.45 845.74 878.50 847.55 883.32 850.00 C 886.14 851.43 888.47 853.36 890.86 855.41 C 890.99 855.52 891.15 855.58 891.32 855.58 C 891.49 855.57 891.65 855.51 891.78 855.39 L 898.75 848.89 C 898.79 848.85 898.83 848.79 898.86 848.73 C 898.88 848.67 898.89 848.60 898.89 848.54 C 898.89 848.47 898.87 848.41 898.84 848.35 C 898.82 848.29 898.77 848.24 898.73 848.20 C 876.16 828.95 844.73 828.25 821.95 847.36 C 821.91 847.40 821.87 847.44 821.85 847.49 C 821.83 847.53 821.82 847.59 821.82 847.64 C 821.82 847.69 821.83 847.74 821.85 847.79 C 821.87 847.84 821.90 847.88 821.94 847.91 L 829.87 855.31 C 830.15 855.58 830.44 855.60 830.76 855.37 C 833.08 853.68 835.04 851.87 837.48 850.53 C 842.29 847.90 847.51 845.95 853.15 844.66 C 853.65 844.54 853.91 844.75 853.91 845.27 Z M 818.85 869.32 C 821.05 865.66 823.60 862.23 826.52 859.02 C 826.54 858.99 826.56 858.96 826.57 858.93 C 826.58 858.89 826.59 858.86 826.59 858.82 C 826.59 858.78 826.58 858.75 826.56 858.72 C 826.54 858.68 826.52 858.65 826.50 858.63 L 818.46 851.16 C 818.25 850.97 818.05 850.98 817.86 851.18 C 809.91 859.50 804.77 869.32 802.45 880.64 C 802.37 881.05 802.53 881.25 802.94 881.25 L 848.67 881.25 C 849.01 881.25 849.18 881.09 849.18 880.75 L 849.18 851.56 C 849.18 851.52 849.17 851.49 849.15 851.45 C 849.13 851.42 849.10 851.39 849.07 851.37 C 849.04 851.35 849.00 851.34 848.96 851.33 C 848.92 851.33 848.88 851.34 848.85 851.35 C 840.97 854.76 834.03 859.19 828.02 864.63 C 827.69 864.92 827.74 865.08 828.18 865.08 L 840.21 865.35 C 840.51 865.36 840.66 865.52 840.66 865.83 L 840.60 869.56 C 840.59 869.88 840.43 870.03 840.11 870.03 L 819.18 869.91 C 818.72 869.91 818.61 869.72 818.85 869.32 Z M 902.44 869.91 L 881.68 870.03 C 881.36 870.03 881.19 869.87 881.19 869.55 L 881.07 865.73 C 881.06 865.68 881.07 865.63 881.09 865.59 C 881.10 865.54 881.13 865.50 881.16 865.46 C 881.20 865.43 881.24 865.40 881.28 865.38 C 881.33 865.36 881.38 865.35 881.43 865.35 L 893.51 865.10 C 894.01 865.10 894.07 864.92 893.70 864.59 C 887.64 859.16 880.77 854.78 873.09 851.47 C 872.74 851.33 872.57 851.44 872.57 851.81 L 872.57 880.59 C 872.56 881.03 872.78 881.25 873.22 881.25 L 916.70 881.25 C 917.10 881.25 917.27 881.05 917.19 880.65 C 915.00 869.83 910.19 860.35 902.76 852.21 C 902.72 852.17 902.68 852.14 902.63 852.12 C 902.58 852.09 902.52 852.08 902.47 852.08 C 902.41 852.08 902.36 852.09 902.31 852.11 C 902.25 852.12 902.21 852.15 902.17 852.19 L 895.36 858.53 C 895.14 858.73 895.13 858.94 895.33 859.16 C 898.17 862.29 900.67 865.64 902.83 869.21 C 903.11 869.68 902.98 869.91 902.44 869.91 Z M 817.84 886.56 C 817.84 886.48 817.82 886.41 817.79 886.34 C 817.76 886.27 817.72 886.21 817.67 886.15 C 817.62 886.10 817.55 886.06 817.48 886.03 C 817.41 886.00 817.34 885.99 817.26 885.99 L 802.07 886.01 C 801.99 886.01 801.92 886.03 801.85 886.06 C 801.78 886.09 801.72 886.13 801.66 886.18 C 801.61 886.24 801.57 886.30 801.54 886.37 C 801.51 886.44 801.50 886.51 801.50 886.59 L 801.52 898.49 C 801.52 898.56 801.53 898.63 801.56 898.70 C 801.59 898.77 801.63 898.84 801.68 898.89 C 801.74 898.94 801.80 898.98 801.87 899.01 C 801.94 899.04 802.01 899.05 802.09 899.05 L 817.29 899.03 C 817.36 899.03 817.44 899.01 817.50 898.98 C 817.58 898.96 817.64 898.91 817.69 898.86 C 817.74 898.81 817.78 898.75 817.81 898.67 C 817.84 898.61 817.86 898.53 817.86 898.46 L 817.84 886.56 Z M 918.18 886.58 C 918.18 886.51 918.16 886.43 918.13 886.37 C 918.11 886.30 918.06 886.23 918.01 886.18 C 917.96 886.13 917.89 886.09 917.83 886.06 C 917.76 886.03 917.68 886.01 917.61 886.01 L 904.51 885.99 C 904.43 885.99 904.36 886.00 904.29 886.03 C 904.22 886.06 904.16 886.10 904.10 886.16 C 904.05 886.21 904.01 886.27 903.98 886.34 C 903.95 886.41 903.94 886.48 903.94 886.56 L 903.92 898.46 C 903.91 898.53 903.93 898.61 903.96 898.68 C 903.99 898.75 904.03 898.81 904.08 898.86 C 904.13 898.91 904.20 898.96 904.27 898.99 C 904.34 899.01 904.41 899.03 904.49 899.03 L 917.59 899.05 C 917.66 899.05 917.73 899.04 917.80 899.01 C 917.87 898.98 917.93 898.94 917.99 898.89 C 918.04 898.83 918.08 898.77 918.11 898.70 C 918.14 898.63 918.15 898.56 918.16 898.48 L 918.18 886.58 Z M 819.18 915.12 L 840.10 914.98 C 840.43 914.98 840.60 915.14 840.61 915.47 L 840.66 919.09 C 840.66 919.48 840.47 919.67 840.08 919.68 L 828.37 919.90 C 827.73 919.91 827.65 920.13 828.13 920.54 C 834.22 925.92 841.12 930.31 848.84 933.70 C 849.06 933.80 849.18 933.73 849.18 933.48 L 849.18 904.28 C 849.18 903.94 849.00 903.77 848.66 903.77 L 803.17 903.77 C 802.76 903.77 802.60 903.97 802.70 904.37 C 805.34 915.57 810.61 925.15 818.51 933.12 C 818.75 933.37 819.00 933.38 819.26 933.14 L 826.27 926.61 C 826.56 926.33 826.57 926.04 826.30 925.75 C 823.44 922.60 820.96 919.25 818.85 915.71 C 818.61 915.32 818.72 915.12 819.18 915.12 Z M 902.85 915.78 C 900.53 919.55 897.98 922.97 895.21 926.04 C 895.09 926.16 895.10 926.28 895.22 926.39 L 901.62 932.34 C 901.66 932.38 901.73 932.41 901.79 932.40 C 901.85 932.40 901.91 932.38 901.96 932.33 C 909.46 924.43 914.46 915.12 916.95 904.39 C 917.04 903.98 916.88 903.77 916.46 903.77 L 873.11 903.77 C 872.74 903.77 872.56 903.95 872.56 904.31 L 872.57 933.23 C 872.57 933.61 872.74 933.72 873.08 933.56 C 880.85 930.17 887.69 925.83 893.60 920.54 C 894.06 920.13 893.99 919.92 893.37 919.91 L 881.44 919.67 C 881.20 919.67 881.08 919.55 881.09 919.31 L 881.18 915.36 C 881.18 915.12 881.31 914.99 881.56 914.99 L 902.48 915.11 C 903.00 915.12 903.12 915.34 902.85 915.78 Z" fill="#e01320" fill-rule="nonzero" node-id="42" stroke="none" target-height="126.78003" target-width="126.400024" target-x="796.626" target-y="828.251"></path><path d="M 796.64 80.82 C 796.64 88.73 793.50 96.31 787.91 101.91 C 782.31 107.50 774.73 110.64 766.82 110.64 C 758.91 110.64 751.33 107.50 745.73 101.91 C 740.14 96.31 737.00 88.73 737.00 80.82 C 737.00 72.91 740.14 65.33 745.73 59.73 C 751.33 54.14 758.91 51.00 766.82 51.00 C 774.73 51.00 782.31 54.14 787.91 59.73 C 793.50 65.33 796.64 72.91 796.64 80.82 Z M 790.18 80.82 C 790.18 74.62 787.72 68.68 783.34 64.30 C 778.96 59.92 773.01 57.46 766.82 57.46 C 760.62 57.46 754.68 59.92 750.30 64.30 C 745.92 68.68 743.46 74.62 743.46 80.82 C 743.46 87.02 745.92 92.96 750.30 97.34 C 754.68 101.72 760.62 104.18 766.82 104.18 C 773.01 104.18 778.96 101.72 783.34 97.34 C 787.72 92.96 790.18 87.02 790.18 80.82 Z" fill="#e01320" fill-rule="nonzero" node-id="44" stroke="none" target-height="59.64" target-width="59.640015" target-x="737" target-y="51"></path><path d="M 778.70 84.75 C 778.70 86.86 777.86 88.89 776.37 90.39 C 774.87 91.88 772.84 92.72 770.73 92.72 L 762.89 92.72 C 760.78 92.72 758.75 91.88 757.25 90.39 C 755.76 88.89 754.92 86.86 754.92 84.75 L 754.92 76.89 C 754.92 74.78 755.76 72.75 757.25 71.25 C 758.75 69.76 760.78 68.92 762.89 68.92 L 770.73 68.92 C 772.84 68.92 774.87 69.76 776.37 71.25 C 777.86 72.75 778.70 74.78 778.70 76.89 L 778.70 84.75 Z M 772.75 76.97 C 772.75 76.43 772.53 75.91 772.15 75.53 C 771.77 75.14 771.25 74.93 770.71 74.93 L 762.95 74.93 C 762.41 74.93 761.89 75.14 761.51 75.53 C 761.12 75.91 760.91 76.43 760.91 76.97 L 760.91 84.67 C 760.91 85.21 761.12 85.73 761.51 86.11 C 761.89 86.50 762.41 86.71 762.95 86.71 L 770.71 86.71 C 771.25 86.71 771.77 86.50 772.15 86.11 C 772.53 85.73 772.75 85.21 772.75 84.67 L 772.75 76.97 Z" fill="#e01320" fill-rule="nonzero" node-id="46" stroke="none" target-height="23.800003" target-width="23.78003" target-x="754.92" target-y="68.9199"></path><path d="M 61.15 146.87 L 61.03 146.92 C 59.73 147.40 59.06 148.85 59.54 150.15 L 64.78 164.32 C 65.26 165.62 66.71 166.29 68.02 165.81 L 68.13 165.76 C 69.44 165.28 70.10 163.83 69.62 162.53 L 64.38 148.36 C 63.90 147.06 62.45 146.39 61.15 146.87 Z" fill="#e01320" fill-rule="nonzero" node-id="48" stroke="none" target-height="19.896988" target-width="11.043903" target-x="59.0604" target-y="146.391"></path><path d="M 90.61 147.42 L 90.51 147.37 C 89.27 146.73 87.75 147.22 87.11 148.46 L 80.20 161.90 C 79.57 163.14 80.05 164.66 81.29 165.30 L 81.40 165.35 C 82.64 165.99 84.16 165.50 84.79 164.26 L 91.70 150.81 C 92.34 149.58 91.85 148.06 90.61 147.42 Z" fill="#e01320" fill-rule="nonzero" node-id="50" stroke="none" target-height="19.257996" target-width="12.773102" target-x="79.5662" target-y="146.731"></path><path d="M 145.91 267.81 C 146.57 269.94 146.35 272.25 145.31 274.22 C 144.27 276.20 142.49 277.68 140.35 278.34 L 68.40 300.61 C 67.35 300.94 66.24 301.06 65.14 300.95 C 64.03 300.85 62.96 300.53 61.99 300.02 C 61.01 299.50 60.14 298.80 59.44 297.95 C 58.73 297.10 58.20 296.12 57.87 295.06 L 27.38 196.55 C 26.72 194.42 26.93 192.11 27.97 190.13 C 29.01 188.16 30.80 186.68 32.93 186.02 L 104.88 163.75 C 105.94 163.42 107.05 163.30 108.15 163.41 C 109.25 163.51 110.32 163.82 111.30 164.34 C 112.28 164.86 113.14 165.56 113.85 166.41 C 114.56 167.26 115.09 168.24 115.42 169.30 L 145.91 267.81 Z M 38.40 211.51 C 44.67 213.24 51.81 214.08 58.43 213.93 C 58.77 213.92 58.96 213.75 58.99 213.42 C 59.90 204.17 64.31 197.93 72.21 194.69 C 81.30 190.97 91.46 194.30 97.07 202.08 C 97.35 202.46 97.68 202.52 98.07 202.27 C 105.07 197.66 110.68 192.83 114.92 187.76 C 115.05 187.61 115.08 187.43 115.02 187.24 L 109.98 170.93 C 109.88 170.60 109.71 170.29 109.49 170.02 C 109.27 169.75 108.99 169.53 108.68 169.36 C 108.37 169.20 108.03 169.10 107.69 169.07 C 107.34 169.04 106.99 169.08 106.65 169.18 L 34.54 191.47 C 33.88 191.67 33.32 192.13 32.99 192.75 C 32.67 193.37 32.60 194.09 32.80 194.76 L 37.80 210.93 C 37.90 211.24 38.10 211.43 38.40 211.51 Z M 116.80 194.23 C 111.62 199.54 106.15 203.96 100.39 207.49 C 100.05 207.70 99.93 207.99 100.02 208.37 C 102.03 217.07 99.83 224.25 93.41 229.90 C 82.18 239.80 64.52 234.39 59.96 220.17 C 59.86 219.85 59.64 219.69 59.30 219.69 C 52.94 219.75 46.68 219.16 40.54 217.92 C 40.13 217.83 39.99 217.99 40.11 218.40 L 63.32 293.46 C 63.53 294.12 63.99 294.68 64.60 295.00 C 65.21 295.32 65.93 295.39 66.59 295.19 L 138.76 272.88 C 139.09 272.78 139.40 272.61 139.66 272.39 C 139.92 272.17 140.14 271.90 140.30 271.60 C 140.46 271.30 140.56 270.96 140.59 270.62 C 140.62 270.28 140.59 269.94 140.48 269.61 L 117.21 194.33 C 117.13 194.06 117.00 194.03 116.80 194.23 Z M 95.34 214.04 C 95.34 212.01 94.94 210.01 94.17 208.14 C 93.39 206.27 92.26 204.57 90.83 203.14 C 89.39 201.70 87.69 200.57 85.82 199.79 C 83.95 199.02 81.95 198.62 79.92 198.62 C 77.90 198.62 75.89 199.02 74.02 199.79 C 72.15 200.57 70.45 201.70 69.02 203.14 C 67.59 204.57 66.45 206.27 65.68 208.14 C 64.90 210.01 64.50 212.01 64.50 214.04 C 64.50 218.13 66.13 222.05 69.02 224.94 C 71.91 227.84 75.83 229.46 79.92 229.46 C 84.01 229.46 87.93 227.84 90.83 224.94 C 93.72 222.05 95.34 218.13 95.34 214.04 Z" fill="#e01320" fill-rule="nonzero" node-id="52" stroke="none" target-height="137.753" target-width="119.8528" target-x="26.7162" target-y="163.303"></path><path d="M 56.07 166.80 L 41.30 163.69 C 39.94 163.40 38.61 164.27 38.32 165.63 L 38.29 165.76 C 38.01 167.12 38.88 168.45 40.23 168.74 L 55.01 171.85 C 56.36 172.14 57.70 171.27 57.98 169.91 L 58.01 169.78 C 58.30 168.42 57.43 167.09 56.07 166.80 Z" fill="#e01320" fill-rule="nonzero" node-id="54" stroke="none" target-height="8.735001" target-width="20.2882" target-x="38.0085" target-y="163.402"></path></svg>